<svg id="svg" xmlns="http://www.w3.org/2000/svg" xmlns:xlink="http://www.w3.org/1999/xlink" width="400" height="172" viewBox="0, 0, 400,172" version="1.1"><g id="svgg"><path id="path0" d="M334.710 47.260 C 333.701 47.512,333.188 48.037,333.288 48.716 C 333.326 48.974,333.294 49.147,333.216 49.099 C 333.139 49.051,333.075 49.202,333.075 49.435 C 333.075 49.942,331.987 51.097,331.510 51.097 C 331.330 51.097,331.178 51.155,331.171 51.226 C 330.717 56.226,331.258 60.158,332.455 60.553 C 333.065 60.755,333.075 60.773,333.075 61.685 C 333.075 63.004,332.899 62.968,339.344 62.968 L 344.946 62.968 344.946 62.022 L 344.946 61.075 345.708 61.075 C 347.071 61.075,347.031 61.271,346.974 54.942 C 346.919 48.706,346.980 48.983,345.677 49.071 L 344.946 49.121 344.946 48.323 C 344.946 47.823,344.850 47.446,344.687 47.311 C 344.318 47.005,335.905 46.962,334.710 47.260 M194.330 53.173 C 194.363 53.227,194.169 53.239,193.899 53.199 C 193.113 53.084,193.080 53.344,193.100 59.398 L 193.118 65.032 192.570 65.032 C 191.550 65.032,191.092 65.316,191.177 65.895 C 191.218 66.178,191.188 66.409,191.110 66.409 C 191.032 66.409,190.968 66.563,190.968 66.753 C 190.968 67.076,190.853 67.097,189.090 67.097 C 186.827 67.097,187.051 66.610,187.108 71.398 C 187.147 74.681,187.129 75.021,186.990 73.638 C 186.810 71.842,186.532 71.226,185.903 71.226 C 185.078 71.226,184.946 71.072,184.946 70.109 C 184.946 69.115,184.807 68.997,183.628 68.992 C 183.122 68.989,183.076 68.938,182.963 68.258 C 182.763 67.040,183.038 67.097,177.312 67.099 C 170.919 67.102,171.173 67.039,171.114 68.643 C 171.100 69.016,171.029 69.084,170.712 69.023 C 169.794 68.849,169.120 69.141,169.086 69.728 C 169.068 70.031,169.010 69.583,168.957 68.731 L 168.860 67.183 164.000 67.137 C 159.454 67.094,159.139 67.111,159.134 67.395 C 158.991 75.288,159.101 124.918,159.261 124.979 C 159.582 125.102,171.547 125.097,172.164 124.974 C 173.104 124.786,173.075 125.533,173.075 101.394 L 173.075 78.968 174.022 78.968 L 174.968 78.968 175.010 82.280 C 175.033 84.101,175.031 86.095,175.005 86.710 C 174.980 87.325,175.003 88.080,175.057 88.387 L 175.155 88.946 180.051 88.946 L 184.946 88.946 184.946 88.022 L 184.946 87.099 185.753 87.008 C 187.005 86.866,187.011 86.847,187.011 82.427 C 187.011 79.415,187.057 78.601,187.217 78.761 C 187.351 78.895,188.047 78.968,189.196 78.968 L 190.968 78.968 191.000 97.161 C 191.043 121.510,191.017 119.786,191.357 120.305 C 191.551 120.602,191.865 120.779,192.337 120.859 C 193.077 120.984,193.064 120.958,193.104 122.409 C 193.118 122.914,193.138 122.926,194.108 122.976 L 195.097 123.028 195.097 123.947 C 195.097 125.032,195.158 125.073,196.788 125.080 C 198.044 125.086,199.054 125.694,199.054 126.446 C 199.054 126.958,199.482 127.003,203.756 126.939 C 208.061 126.875,208.496 126.763,208.690 125.659 C 208.775 125.171,208.804 125.159,210.152 125.046 C 213.014 124.805,212.903 125.063,212.903 118.675 C 212.903 112.694,213.049 113.118,210.989 113.118 C 209.305 113.118,209.032 113.303,209.032 114.441 L 209.032 115.097 207.567 115.097 C 206.134 115.097,206.092 115.085,205.594 114.538 L 205.085 113.978 205.080 96.473 L 205.075 78.968 208.854 78.968 C 212.414 78.968,212.643 78.948,212.811 78.635 C 212.923 78.426,212.989 76.336,212.989 73.032 C 212.989 69.729,212.923 67.638,212.811 67.430 C 212.643 67.116,212.414 67.097,208.854 67.097 L 205.075 67.097 205.059 61.806 C 205.049 58.897,205.056 56.219,205.073 55.857 C 205.111 55.033,204.927 53.650,204.738 53.345 C 204.625 53.161,203.545 53.110,199.433 53.095 C 196.593 53.084,194.297 53.119,194.330 53.173 M37.432 53.432 C 37.280 53.584,37.161 53.991,37.161 54.363 L 37.161 55.024 33.468 55.082 C 29.314 55.147,29.294 55.153,29.125 56.406 L 29.030 57.118 28.118 57.118 C 27.087 57.118,26.889 57.364,27.084 58.402 L 27.190 58.968 26.240 59.046 C 25.021 59.147,25.064 59.078,25.047 60.982 C 25.039 61.877,24.986 62.479,24.931 62.320 C 24.842 62.069,24.774 62.089,24.414 62.473 C 24.186 62.715,23.787 62.966,23.527 63.030 L 23.054 63.146 23.054 71.562 C 23.054 80.565,23.079 80.859,23.867 80.863 C 25.014 80.868,25.028 80.891,25.073 82.795 C 25.120 84.787,25.126 84.797,26.256 84.961 L 27.097 85.084 27.097 85.901 C 27.097 86.861,27.298 87.047,28.344 87.051 L 29.075 87.054 29.075 87.859 C 29.075 89.441,30.443 91.317,30.984 90.479 C 31.105 90.292,31.135 90.315,31.113 90.581 C 30.972 92.329,31.291 92.903,32.404 92.903 L 33.127 92.903 33.064 93.572 C 32.961 94.643,33.235 94.968,34.243 94.968 L 35.097 94.968 35.097 95.911 C 35.097 96.944,35.125 96.968,36.473 97.072 C 37.065 97.118,37.075 97.131,37.075 97.892 C 37.075 98.951,37.212 99.097,38.204 99.097 L 39.054 99.097 39.054 100.043 C 39.054 100.563,39.131 100.989,39.226 100.989 C 39.320 100.989,39.398 101.127,39.398 101.295 C 39.398 101.977,40.651 103.012,40.932 102.563 C 40.987 102.474,41.048 102.899,41.068 103.507 C 41.114 104.911,41.141 104.946,42.161 104.946 C 42.628 104.946,43.022 105.004,43.035 105.075 C 43.049 105.146,43.077 106.988,43.098 109.167 L 43.137 113.130 42.601 113.068 C 41.521 112.944,41.118 113.260,41.118 114.232 L 41.118 115.097 39.995 115.097 C 39.241 115.097,38.852 115.026,38.814 114.882 C 38.512 113.745,38.428 113.628,37.736 113.388 C 37.078 113.160,37.020 113.087,36.922 112.373 C 36.781 111.346,36.573 111.140,35.678 111.140 L 34.925 111.140 34.925 106.162 C 34.925 101.569,34.901 101.178,34.624 101.099 C 34.052 100.936,23.398 101.024,23.398 101.191 C 23.398 101.280,23.320 101.305,23.224 101.246 C 23.108 101.175,23.065 104.090,23.095 110.053 L 23.140 118.968 23.525 119.023 C 24.305 119.133,24.920 120.000,25.047 121.167 C 25.214 122.699,25.299 122.803,26.484 122.937 C 27.401 123.041,27.523 123.103,27.711 123.556 C 27.826 123.833,28.160 124.183,28.454 124.333 C 28.749 124.484,29.044 124.693,29.111 124.798 C 29.183 124.911,30.032 125.025,31.174 125.075 L 33.114 125.161 33.219 125.815 C 33.396 126.907,33.236 126.877,39.074 126.936 C 44.995 126.996,44.822 127.028,44.998 125.850 L 45.110 125.105 47.852 125.047 C 50.921 124.982,50.918 124.984,50.922 123.751 L 50.925 123.028 51.914 122.976 L 52.903 122.925 52.955 121.935 L 53.006 120.946 53.941 120.946 C 54.925 120.946,55.145 120.719,55.048 119.804 C 54.967 119.033,55.049 118.882,55.551 118.882 C 55.824 118.882,56.231 118.734,56.454 118.553 L 56.860 118.224 56.910 108.938 C 56.966 98.553,57.030 99.097,55.753 99.097 L 55.100 99.097 55.017 97.383 C 54.921 95.374,54.788 95.140,53.751 95.140 L 53.006 95.140 52.955 94.151 L 52.903 93.161 51.930 93.110 L 50.956 93.059 50.898 91.355 C 50.832 89.456,50.753 89.304,49.759 89.170 L 49.067 89.078 48.951 88.152 C 48.824 87.136,48.546 86.935,47.482 87.091 L 46.968 87.166 46.968 86.256 C 46.968 85.220,46.734 84.989,45.689 84.989 C 45.090 84.989,45.075 84.973,45.075 84.315 C 45.075 83.202,44.977 83.097,43.939 83.097 L 43.011 83.097 43.011 82.161 C 43.011 81.646,42.933 81.177,42.839 81.118 C 42.744 81.060,42.667 80.840,42.667 80.630 C 42.667 80.037,42.197 79.508,41.564 79.389 C 41.016 79.287,40.983 79.238,40.905 78.426 C 40.806 77.398,40.676 77.248,39.783 77.128 C 39.097 77.036,39.093 77.031,39.011 76.177 C 38.916 75.186,38.728 75.017,37.717 75.013 L 36.983 75.011 37.029 71.033 L 37.075 67.055 37.935 67.013 C 38.409 66.990,38.912 66.944,39.054 66.910 C 39.196 66.876,40.171 66.912,41.220 66.990 L 43.129 67.131 43.081 68.846 C 43.015 71.193,43.648 72.602,44.769 72.602 C 45.053 72.602,45.075 72.877,45.075 76.440 C 45.075 81.472,44.510 80.946,49.922 80.946 C 55.354 80.946,56.602 80.636,56.602 79.289 C 56.602 79.112,56.680 78.968,56.774 78.968 C 56.886 78.968,56.946 76.262,56.946 71.195 C 56.946 62.383,56.897 62.017,55.644 61.564 C 55.120 61.374,55.087 61.310,55.017 60.346 C 54.931 59.152,54.735 58.961,53.729 59.085 L 53.006 59.174 52.955 58.189 L 52.903 57.204 52.301 57.158 C 51.066 57.063,50.925 56.982,50.925 56.374 C 50.925 55.161,50.875 55.146,46.638 55.087 L 42.839 55.035 42.839 54.442 C 42.839 53.325,42.467 53.161,39.926 53.161 C 38.134 53.161,37.650 53.214,37.432 53.432 M61.986 67.286 C 61.548 67.414,61.397 67.580,61.256 68.089 C 61.021 68.934,61.009 124.360,61.244 124.731 C 61.384 124.953,62.345 124.989,68.166 124.989 L 74.925 124.989 74.968 103.011 L 75.012 81.032 75.773 81.032 C 76.794 81.032,77.124 80.691,77.046 79.715 L 76.987 78.968 79.089 78.968 L 81.191 78.968 81.194 101.887 C 81.197 124.759,81.198 124.807,81.546 124.936 C 81.738 125.007,84.817 125.048,88.389 125.027 L 94.882 124.989 94.925 103.011 L 94.969 81.032 95.700 81.030 C 96.710 81.026,96.895 80.857,96.992 79.846 L 97.076 78.968 99.008 78.968 L 100.940 78.968 101.056 80.213 C 101.119 80.897,101.164 91.206,101.156 103.121 C 101.143 120.806,101.182 124.810,101.366 124.925 C 101.490 125.003,104.592 125.066,108.259 125.066 L 114.926 125.066 114.882 99.135 L 114.839 73.204 113.960 73.153 L 113.082 73.102 112.968 71.482 C 112.803 69.132,112.846 69.184,110.992 69.115 C 110.156 69.084,109.912 69.012,109.836 68.774 C 109.783 68.608,109.601 68.398,109.430 68.307 C 109.260 68.216,109.074 67.906,109.016 67.619 L 108.912 67.097 103.165 67.097 C 96.718 67.097,96.951 67.049,97.058 68.340 L 97.118 69.075 95.318 69.107 C 93.269 69.144,93.091 69.249,93.054 70.441 L 93.032 71.140 92.912 70.402 C 92.745 69.376,92.489 69.186,91.185 69.127 C 90.003 69.072,89.184 68.496,88.939 67.545 C 88.846 67.187,88.778 67.182,83.196 67.137 C 76.926 67.087,77.075 67.061,77.075 68.216 C 77.075 69.061,76.783 69.229,75.630 69.044 C 75.236 68.981,74.999 69.002,75.056 69.095 C 75.111 69.185,74.869 69.226,74.497 69.191 C 73.614 69.107,73.131 69.582,73.084 70.581 C 73.065 70.983,73.007 70.383,72.955 69.247 L 72.860 67.183 67.699 67.154 C 64.860 67.138,62.289 67.198,61.986 67.286 M129.032 67.269 C 129.032 67.363,128.888 67.441,128.711 67.441 C 128.210 67.441,127.522 68.080,127.394 68.664 C 127.280 69.183,127.260 69.193,126.518 69.081 C 125.269 68.894,125.075 69.033,125.075 70.119 C 125.075 70.738,125.003 71.063,124.860 71.081 C 124.742 71.096,124.297 71.118,123.871 71.130 L 123.097 71.151 123.104 72.107 L 123.112 73.062 122.162 73.101 C 120.949 73.150,121.026 72.993,121.072 75.327 C 121.137 78.613,121.040 79.140,120.365 79.140 C 119.284 79.140,119.138 79.413,119.154 81.406 C 119.172 83.534,119.458 84.398,120.204 84.577 C 121.083 84.787,121.166 84.951,121.040 86.231 C 120.977 86.873,120.978 87.752,121.043 88.183 L 121.161 88.968 126.516 88.910 C 129.461 88.878,132.012 88.785,132.185 88.703 C 132.774 88.426,132.873 87.731,132.951 83.312 L 133.027 78.968 134.968 78.968 C 137.108 78.968,137.118 78.973,137.118 80.104 C 137.118 80.753,137.530 81.032,138.487 81.032 L 138.973 81.032 139.094 84.344 C 139.161 86.166,139.188 87.966,139.156 88.344 L 139.097 89.032 137.467 89.147 C 135.605 89.278,135.142 89.580,135.259 90.586 L 135.321 91.119 133.980 91.076 C 133.242 91.052,132.673 91.089,132.716 91.158 C 132.758 91.227,132.514 91.250,132.174 91.211 C 131.413 91.122,131.097 91.477,131.097 92.420 L 131.097 93.075 130.043 93.075 C 129.068 93.075,129.007 93.098,129.218 93.376 C 129.412 93.632,129.410 93.645,129.205 93.462 C 128.578 92.904,127.576 93.330,127.293 94.276 C 127.102 94.912,127.040 94.961,126.297 95.060 C 125.064 95.224,125.075 95.213,125.075 96.259 L 125.075 97.216 124.251 97.107 C 123.178 96.964,122.924 97.229,123.088 98.321 L 123.204 99.097 122.354 99.097 C 121.202 99.097,121.105 99.263,121.066 101.319 L 121.032 103.053 120.313 103.054 C 118.993 103.054,119.054 102.662,119.054 111.156 L 119.054 118.718 119.495 118.886 C 119.738 118.978,120.183 119.054,120.484 119.054 L 121.032 119.054 121.056 120.881 C 121.082 122.934,121.122 123.004,122.280 123.008 L 123.011 123.011 123.013 123.742 C 123.018 124.909,123.112 124.967,125.108 125.046 C 127.014 125.122,127.133 125.181,127.137 126.058 C 127.141 126.904,127.434 126.969,131.214 126.960 C 135.870 126.950,136.774 126.715,136.774 125.512 C 136.774 125.144,136.854 125.123,138.621 125.023 C 140.649 124.908,140.879 124.785,140.930 123.795 C 140.948 123.457,140.994 123.576,141.059 124.129 L 141.161 124.989 146.065 124.989 L 150.968 124.989 151.014 99.441 C 151.063 72.033,151.087 73.207,150.466 73.051 C 149.629 72.841,149.016 71.996,148.889 70.879 C 148.720 69.386,147.706 68.763,145.972 69.088 C 145.275 69.219,144.860 68.826,144.860 68.037 C 144.860 67.636,144.756 67.397,144.527 67.275 C 144.077 67.034,129.032 67.028,129.032 67.269 M222.968 67.251 C 222.826 67.325,222.478 67.497,222.196 67.633 C 221.633 67.905,221.211 68.754,221.538 68.956 C 221.644 69.022,221.229 69.075,220.615 69.075 C 219.280 69.075,218.956 69.359,219.042 70.452 L 219.097 71.140 218.409 71.190 C 217.259 71.273,216.784 72.662,217.048 75.164 C 217.126 75.909,217.106 76.228,216.985 76.153 C 216.886 76.092,216.616 76.268,216.384 76.544 C 216.151 76.819,215.777 77.071,215.551 77.103 L 215.140 77.161 215.096 94.863 C 215.051 113.001,215.052 113.032,215.695 113.032 C 215.836 113.032,216.103 113.226,216.289 113.462 C 216.475 113.699,216.748 113.892,216.896 113.892 C 217.121 113.892,217.148 114.047,217.057 114.820 C 216.738 117.534,217.196 118.882,218.436 118.882 L 219.213 118.882 219.098 119.563 C 218.901 120.729,219.065 120.946,220.141 120.946 L 221.075 120.946 221.078 121.677 C 221.083 123.007,220.614 122.925,228.209 122.925 L 235.011 122.925 235.012 124.989 C 235.013 126.125,235.063 127.576,235.123 128.215 C 235.219 129.235,235.197 129.376,234.941 129.376 C 234.341 129.376,233.663 129.888,233.463 130.492 L 233.264 131.097 231.151 131.097 L 229.037 131.097 228.948 128.731 C 228.858 126.348,228.672 125.552,228.149 125.310 C 227.595 125.053,217.750 125.029,217.409 125.283 C 217.123 125.497,217.095 125.935,217.054 130.844 C 216.995 137.768,217.157 138.645,218.511 138.720 L 219.097 138.753 219.097 139.647 C 219.097 140.794,219.219 140.897,220.717 141.023 C 222.075 141.137,222.806 141.612,223.037 142.530 L 223.146 142.968 230.908 142.968 C 239.941 142.968,240.688 142.848,240.688 141.396 C 240.688 141.126,240.823 141.075,241.534 141.075 C 242.835 141.075,242.925 141.002,242.925 139.939 L 242.925 139.011 243.751 139.011 C 244.785 139.011,244.989 138.807,244.989 137.772 C 244.989 137.012,245.022 136.946,245.408 136.946 C 246.812 136.946,247.026 136.357,247.046 132.430 L 247.054 130.925 247.623 130.925 C 247.936 130.925,248.343 130.815,248.526 130.681 C 248.917 130.395,249.156 68.155,248.770 67.433 C 248.597 67.110,248.371 67.097,243.039 67.097 C 236.784 67.097,237.075 67.031,237.075 68.443 C 237.075 69.234,237.038 69.344,236.828 69.170 C 236.665 69.035,236.312 69.005,235.796 69.083 L 235.011 69.200 235.011 68.590 C 235.011 68.254,234.935 67.781,234.843 67.538 L 234.675 67.097 228.950 67.107 C 225.802 67.112,223.110 67.177,222.968 67.251 M264.000 67.221 C 263.432 67.361,263.269 67.586,263.147 68.401 L 263.030 69.179 262.266 69.064 C 261.270 68.915,260.922 69.177,261.069 69.965 C 261.247 70.914,260.961 71.216,259.956 71.142 L 259.097 71.078 259.097 72.009 C 259.097 73.028,259.066 73.054,257.721 73.158 L 257.120 73.204 257.095 74.925 C 257.082 75.871,257.062 76.742,257.051 76.860 C 257.039 77.001,256.734 77.075,256.168 77.075 C 254.978 77.075,254.979 77.071,255.051 82.725 C 255.102 86.713,255.073 87.533,254.882 87.460 C 254.755 87.411,254.470 87.467,254.250 87.585 C 253.136 88.178,253.041 88.957,253.106 97.032 C 253.170 104.924,253.122 104.696,254.741 104.818 L 255.116 104.846 255.085 110.731 C 255.051 117.227,254.984 116.861,256.226 116.985 L 257.118 117.075 257.118 118.968 L 257.118 120.860 258.099 120.912 L 259.080 120.963 259.131 121.944 L 259.183 122.925 260.086 122.977 L 260.989 123.029 260.992 123.751 C 260.996 124.932,261.083 124.982,263.219 125.047 L 265.118 125.106 265.118 125.588 C 265.118 126.833,265.278 126.876,270.187 126.936 C 275.687 127.003,276.645 126.779,276.645 125.431 C 276.645 125.066,277.425 124.971,279.601 125.071 C 280.648 125.119,280.946 124.853,280.946 123.874 L 280.946 123.028 281.935 122.976 L 282.925 122.925 282.976 121.935 L 283.028 120.946 283.947 120.946 C 285.071 120.946,285.075 120.938,285.075 118.696 L 285.075 116.989 285.645 116.989 C 286.916 116.989,286.882 117.155,286.882 110.975 C 286.882 106.251,286.844 105.426,286.624 105.287 C 286.207 105.023,275.277 105.068,275.179 105.333 C 275.135 105.452,275.080 106.834,275.055 108.406 C 275.021 110.616,274.962 111.246,274.794 111.183 C 273.644 110.751,273.143 111.462,273.129 113.548 L 273.118 115.011 272.064 115.061 L 271.009 115.112 270.894 114.344 C 270.761 113.455,270.602 113.292,269.720 113.133 C 269.007 113.004,269.017 113.040,269.069 110.796 C 269.131 108.155,268.753 107.190,267.656 107.185 L 267.011 107.183 267.011 104.086 L 267.011 100.989 275.837 100.989 C 284.968 100.989,285.075 100.981,285.075 100.299 C 285.075 99.988,285.934 99.097,286.234 99.097 C 286.969 99.097,286.968 99.119,286.965 88.031 C 286.962 75.887,286.896 75.355,285.400 75.355 C 285.118 75.355,285.075 75.220,285.075 74.344 C 285.075 73.655,284.993 73.264,284.817 73.118 C 284.675 73.000,284.559 72.776,284.559 72.619 C 284.559 72.160,284.088 71.618,283.576 71.490 C 282.991 71.343,282.845 71.128,282.841 70.409 C 282.837 69.484,280.909 68.567,280.064 69.089 C 279.600 69.376,279.084 68.987,278.964 68.259 C 278.760 67.024,279.229 67.095,271.420 67.117 C 267.528 67.128,264.189 67.175,264.000 67.221 M291.839 67.270 C 291.080 67.576,291.097 66.906,291.097 96.424 C 291.097 123.232,291.113 124.749,291.398 124.866 C 291.563 124.934,294.680 124.989,298.323 124.989 L 304.946 124.989 304.990 103.011 L 305.034 81.032 305.707 81.032 C 306.819 81.032,306.925 80.934,306.925 79.896 L 306.925 78.968 308.989 78.968 L 311.054 78.968 311.054 101.855 C 311.054 123.490,311.070 124.749,311.355 124.866 C 311.520 124.934,314.637 124.989,318.280 124.989 L 324.903 124.989 324.947 99.142 L 324.990 73.295 324.431 73.045 C 323.216 72.501,322.925 72.055,322.925 70.739 C 322.925 69.297,322.804 69.167,321.415 69.115 C 320.845 69.093,320.452 69.030,320.540 68.975 C 320.991 68.695,319.956 67.441,319.274 67.441 C 319.105 67.441,318.968 67.363,318.968 67.269 C 318.968 67.003,307.570 67.037,307.303 67.303 C 307.190 67.417,307.097 67.834,307.097 68.231 C 307.097 69.059,306.719 69.267,305.599 69.057 C 305.252 68.992,305.024 69.008,305.077 69.094 C 305.129 69.179,304.850 69.226,304.457 69.199 C 303.480 69.133,303.255 69.335,303.127 70.399 C 303.039 71.124,303.011 70.934,302.992 69.476 C 302.979 68.467,302.921 67.519,302.863 67.369 C 302.745 67.061,292.585 66.969,291.839 67.270 M333.159 67.302 C 333.111 67.426,333.093 80.456,333.117 96.258 L 333.161 124.989 339.736 124.989 C 345.818 124.989,346.334 124.966,346.618 124.682 C 346.910 124.390,346.925 123.033,346.925 96.725 C 346.925 66.873,346.957 67.905,346.022 67.426 C 345.345 67.079,333.288 66.962,333.159 67.302 M349.264 67.335 C 349.129 67.497,349.081 68.414,349.114 70.217 L 349.161 72.860 350.065 72.912 L 350.968 72.964 350.992 73.772 C 351.006 74.217,351.037 75.422,351.061 76.449 C 351.110 78.571,351.211 78.769,352.307 78.916 C 353.152 79.029,353.199 79.165,353.112 81.246 C 353.042 82.934,353.146 83.097,354.287 83.097 L 354.876 83.097 354.986 84.154 C 355.047 84.736,355.097 85.882,355.097 86.702 C 355.097 88.490,355.255 88.776,356.312 88.895 L 357.075 88.981 357.038 90.727 C 356.994 92.816,357.049 92.926,358.175 93.035 L 359.054 93.119 359.054 96.108 L 359.054 99.097 358.189 99.097 C 357.082 99.097,356.985 99.323,357.050 101.760 C 357.076 102.757,357.043 103.484,356.976 103.376 C 356.836 103.150,356.194 103.273,355.725 103.616 C 355.361 103.882,355.116 104.948,355.103 106.323 C 355.098 106.843,355.045 107.675,354.985 108.172 L 354.877 109.075 354.148 109.075 C 353.140 109.075,353.036 109.272,353.097 111.064 C 353.165 113.084,353.127 113.204,352.410 113.204 C 351.566 113.204,351.089 113.740,351.171 114.597 C 351.206 114.967,351.164 115.269,351.078 115.269 C 350.992 115.269,350.967 115.604,351.023 116.013 C 351.079 116.422,351.078 117.313,351.021 117.994 L 350.917 119.232 350.355 119.127 C 349.070 118.885,349.061 118.907,349.114 122.120 L 349.161 124.989 355.900 124.989 C 359.606 124.989,362.703 124.925,362.781 124.846 C 362.860 124.768,362.951 123.781,362.982 122.653 C 363.035 120.750,363.064 120.602,363.377 120.602 C 363.810 120.602,364.559 119.857,364.559 119.427 C 364.559 119.245,364.676 118.999,364.818 118.881 C 365.013 118.719,365.074 118.318,365.062 117.268 C 365.034 114.833,364.986 114.993,365.802 114.820 C 366.555 114.661,366.588 114.615,366.907 113.290 C 367.019 112.824,367.041 112.862,367.134 113.687 C 367.252 114.727,367.452 114.918,368.430 114.922 L 369.118 114.925 369.138 117.347 C 369.160 120.091,369.358 120.640,370.362 120.741 C 370.981 120.803,371.092 121.216,371.095 123.476 L 371.097 124.888 371.656 124.986 C 371.963 125.040,375.080 125.063,378.581 125.037 L 384.946 124.989 384.946 121.360 C 384.946 117.220,384.929 117.161,383.726 117.161 L 382.979 117.161 382.930 115.140 C 382.882 113.144,382.876 113.118,382.463 113.059 C 381.443 112.915,381.096 112.169,381.011 109.942 C 380.918 107.480,380.808 107.221,379.827 107.150 L 379.097 107.097 379.011 105.290 C 378.904 103.058,378.868 102.994,377.803 103.140 L 376.977 103.254 376.919 100.513 C 376.853 97.454,376.785 97.255,375.772 97.171 L 375.140 97.118 375.092 95.120 L 375.043 93.121 375.771 93.005 C 376.913 92.822,376.946 92.753,376.946 90.560 C 376.946 88.799,376.977 88.602,377.252 88.602 C 378.331 88.602,379.011 87.139,379.011 84.818 L 379.011 83.142 379.723 83.047 C 380.862 82.894,380.984 82.662,381.025 80.575 C 381.045 79.573,381.083 78.743,381.111 78.731 C 382.594 78.094,382.936 77.380,382.954 74.882 L 382.968 72.946 383.699 72.944 C 384.939 72.939,384.946 72.924,384.946 70.140 C 384.946 66.744,385.752 67.097,377.992 67.097 C 370.513 67.097,371.097 66.942,371.097 68.926 C 371.097 70.742,370.922 71.226,370.267 71.226 C 369.297 71.226,369.161 71.618,369.139 74.490 L 369.118 77.075 368.602 77.078 C 367.626 77.083,367.237 77.423,367.124 78.370 L 367.022 79.226 366.995 78.357 C 366.962 77.291,366.763 77.075,365.815 77.075 L 365.075 77.075 365.071 76.172 C 365.047 70.983,365.042 70.965,363.742 71.145 L 363.011 71.247 363.011 69.505 C 363.011 66.835,363.767 67.097,356.058 67.097 C 350.649 67.097,349.426 67.140,349.264 67.335 M233.118 79.570 C 233.118 80.397,233.613 80.860,234.496 80.860 L 235.185 80.860 235.141 95.008 L 235.097 109.155 234.461 109.259 C 233.632 109.394,233.351 109.644,233.215 110.372 L 233.103 110.968 232.011 110.968 L 230.920 110.968 230.812 110.409 C 230.652 109.577,230.469 109.382,229.738 109.263 L 229.075 109.155 229.031 95.030 L 228.987 80.904 229.536 80.794 C 230.194 80.662,230.710 80.232,230.710 79.815 C 230.710 79.079,230.881 78.968,232.018 78.968 L 233.118 78.968 233.118 79.570 M273.131 81.536 C 273.128 84.458,273.262 84.817,274.349 84.817 L 274.925 84.817 274.925 86.968 L 274.925 89.118 270.968 89.118 L 267.011 89.118 267.011 87.914 C 267.011 86.976,267.066 86.710,267.261 86.710 C 268.540 86.710,269.101 85.129,269.067 81.626 C 269.057 80.590,269.055 79.568,269.062 79.355 C 269.075 78.976,269.119 78.968,271.104 78.968 L 273.133 78.968 273.131 81.536 M367.089 81.419 C 367.048 81.632,367.015 81.458,367.015 81.032 C 367.015 80.606,367.048 80.432,367.089 80.645 C 367.130 80.858,367.130 81.206,367.089 81.419 M272.989 91.139 C 271.877 91.169,270.058 91.169,268.946 91.139 C 267.834 91.109,268.744 91.085,270.968 91.085 C 273.191 91.085,274.101 91.109,272.989 91.139 M255.096 97.583 C 255.065 98.463,255.039 97.789,255.039 96.086 C 255.039 94.383,255.064 93.663,255.096 94.486 C 255.127 95.309,255.127 96.703,255.096 97.583 M139.183 107.106 L 139.183 113.224 138.194 113.171 L 137.204 113.118 137.047 114.108 L 136.891 115.097 135.994 115.097 L 135.098 115.097 134.984 114.240 C 134.856 113.274,134.580 113.032,133.603 113.032 L 132.989 113.032 132.989 109.586 L 132.989 106.139 133.571 105.557 C 133.891 105.237,134.336 104.950,134.560 104.918 C 134.922 104.867,134.974 104.758,135.020 103.957 L 135.072 103.054 135.676 103.054 C 136.696 103.054,136.946 102.816,136.946 101.843 L 136.946 100.989 138.065 100.989 L 139.183 100.989 139.183 107.106 M367.089 111.355 C 367.048 111.568,367.015 111.394,367.015 110.968 C 367.015 110.542,367.048 110.368,367.089 110.581 C 367.130 110.794,367.130 111.142,367.089 111.355 M171.343 123.064 C 171.349 123.140,171.277 123.155,171.183 123.097 C 171.088 123.038,171.016 122.821,171.023 122.614 C 171.035 122.238,171.304 122.617,171.343 123.064 M235.653 124.779 C 235.617 125.179,235.587 124.809,235.588 123.957 C 235.588 123.105,235.618 122.779,235.654 123.231 C 235.689 123.683,235.689 124.380,235.653 124.779 " stroke="none" fill="#44dce4" fill-rule="evenodd"></path><path id="path1" d="M338.372 47.095 C 338.967 47.129,339.896 47.129,340.437 47.095 C 340.977 47.061,340.490 47.033,339.355 47.033 C 338.219 47.034,337.777 47.062,338.372 47.095 M331.079 54.882 C 331.079 56.254,331.106 56.815,331.138 56.129 C 331.171 55.443,331.171 54.320,331.138 53.634 C 331.106 52.948,331.079 53.510,331.079 54.882 M197.557 53.117 C 198.389 53.149,199.706 53.149,200.482 53.117 C 201.258 53.085,200.576 53.059,198.968 53.060 C 197.359 53.060,196.724 53.086,197.557 53.117 M193.084 57.806 C 193.084 58.327,193.116 58.540,193.155 58.280 C 193.195 58.019,193.195 57.594,193.155 57.333 C 193.116 57.073,193.084 57.286,193.084 57.806 M159.052 96.774 C 159.052 111.062,159.072 116.933,159.097 109.820 C 159.122 102.707,159.122 91.017,159.097 83.841 C 159.072 76.666,159.052 82.486,159.052 96.774 M187.078 73.032 C 187.078 74.262,187.105 74.743,187.138 74.100 C 187.172 73.458,187.171 72.451,187.138 71.864 C 187.104 71.276,187.077 71.802,187.078 73.032 M351.011 75.269 C 351.013 75.647,351.048 75.782,351.089 75.568 C 351.131 75.354,351.129 75.044,351.086 74.880 C 351.043 74.715,351.009 74.890,351.011 75.269 M216.990 75.613 C 216.992 75.991,217.027 76.126,217.068 75.912 C 217.109 75.698,217.108 75.388,217.064 75.224 C 217.021 75.059,216.988 75.234,216.990 75.613 M121.004 77.075 C 121.004 77.785,121.034 78.075,121.072 77.720 C 121.109 77.366,121.109 76.785,121.072 76.430 C 121.034 76.075,121.004 76.366,121.004 77.075 M255.019 80.344 C 255.019 80.865,255.052 81.077,255.091 80.817 C 255.130 80.557,255.130 80.131,255.091 79.871 C 255.052 79.611,255.019 79.824,255.019 80.344 M367.015 81.032 C 367.015 81.458,367.048 81.632,367.089 81.419 C 367.130 81.206,367.130 80.858,367.089 80.645 C 367.048 80.432,367.015 80.606,367.015 81.032 M101.073 102.022 C 101.073 113.897,101.093 118.755,101.118 112.817 C 101.143 106.880,101.143 97.163,101.118 91.226 C 101.093 85.288,101.073 90.146,101.073 102.022 M273.072 81.204 C 273.072 81.535,273.108 81.671,273.151 81.505 C 273.194 81.340,273.194 81.069,273.151 80.903 C 273.108 80.738,273.072 80.873,273.072 81.204 M235.093 94.968 C 235.093 102.774,235.114 105.968,235.140 102.065 C 235.166 98.161,235.166 91.774,235.140 87.871 C 235.114 83.968,235.093 87.161,235.093 94.968 M81.116 102.366 C 81.116 114.146,81.136 118.966,81.161 113.075 C 81.186 107.185,81.186 97.546,81.161 91.656 C 81.136 85.766,81.116 90.585,81.116 102.366 M139.079 86.624 C 139.079 87.948,139.106 88.468,139.139 87.777 C 139.171 87.087,139.171 86.003,139.138 85.369 C 139.105 84.734,139.078 85.299,139.079 86.624 M255.029 86.108 C 255.028 86.959,255.057 87.329,255.093 86.930 C 255.130 86.531,255.130 85.834,255.094 85.382 C 255.059 84.929,255.029 85.256,255.029 86.108 M120.993 85.677 C 120.993 86.103,121.027 86.277,121.068 86.065 C 121.109 85.852,121.109 85.503,121.068 85.290 C 121.027 85.077,120.993 85.252,120.993 85.677 M175.015 86.194 C 175.015 86.619,175.048 86.794,175.089 86.581 C 175.130 86.368,175.130 86.019,175.089 85.806 C 175.048 85.594,175.015 85.768,175.015 86.194 M268.946 91.139 C 270.058 91.169,271.877 91.169,272.989 91.139 C 274.101 91.109,273.191 91.085,270.968 91.085 C 268.744 91.085,267.834 91.109,268.946 91.139 M255.039 96.086 C 255.039 97.789,255.065 98.463,255.096 97.583 C 255.127 96.703,255.127 95.309,255.096 94.486 C 255.064 93.663,255.039 94.383,255.039 96.086 M24.561 101.111 C 24.775 101.152,25.085 101.151,25.249 101.107 C 25.414 101.064,25.239 101.031,24.860 101.033 C 24.482 101.035,24.347 101.070,24.561 101.111 M32.647 101.111 C 32.861 101.152,33.171 101.151,33.335 101.107 C 33.500 101.064,33.325 101.031,32.946 101.033 C 32.568 101.035,32.433 101.070,32.647 101.111 M139.011 106.999 L 139.011 113.009 138.538 113.081 C 138.097 113.148,138.103 113.155,138.624 113.179 L 139.183 113.204 139.183 107.097 C 139.183 103.738,139.144 100.989,139.097 100.989 C 139.049 100.989,139.011 103.694,139.011 106.999 M255.034 106.839 C 255.034 108.022,255.062 108.505,255.095 107.914 C 255.129 107.323,255.129 106.355,255.095 105.763 C 255.062 105.172,255.034 105.656,255.034 106.839 M43.051 105.806 C 43.051 106.138,43.086 106.273,43.129 106.108 C 43.173 105.942,43.173 105.671,43.129 105.505 C 43.086 105.340,43.051 105.475,43.051 105.806 M43.077 110.108 C 43.077 111.290,43.105 111.774,43.138 111.183 C 43.172 110.591,43.172 109.624,43.138 109.032 C 43.105 108.441,43.077 108.925,43.077 110.108 M367.015 110.968 C 367.015 111.394,367.048 111.568,367.089 111.355 C 367.130 111.142,367.130 110.794,367.089 110.581 C 367.048 110.368,367.015 110.542,367.015 110.968 M255.019 113.204 C 255.019 113.725,255.052 113.938,255.091 113.677 C 255.130 113.417,255.130 112.991,255.091 112.731 C 255.052 112.471,255.019 112.684,255.019 113.204 M216.990 114.495 C 216.992 114.873,217.027 115.008,217.068 114.794 C 217.109 114.580,217.108 114.270,217.064 114.106 C 217.021 113.941,216.988 114.116,216.990 114.495 M191.023 116.301 C 191.023 116.916,191.054 117.168,191.092 116.860 C 191.130 116.553,191.130 116.049,191.092 115.742 C 191.054 115.434,191.023 115.686,191.023 116.301 M351.011 116.903 C 351.013 117.282,351.048 117.416,351.089 117.202 C 351.131 116.988,351.129 116.679,351.086 116.514 C 351.043 116.350,351.009 116.525,351.011 116.903 M171.023 122.614 C 171.016 122.821,171.088 123.038,171.183 123.097 C 171.386 123.223,171.386 123.054,171.183 122.581 C 171.040 122.249,171.035 122.250,171.023 122.614 M235.588 123.957 C 235.587 124.809,235.617 125.179,235.653 124.779 C 235.689 124.380,235.689 123.683,235.654 123.231 C 235.618 122.779,235.588 123.105,235.588 123.957 M235.060 128.602 C 235.061 129.075,235.095 129.248,235.134 128.987 C 235.174 128.725,235.173 128.338,235.132 128.127 C 235.091 127.915,235.059 128.129,235.060 128.602 M217.015 131.269 C 217.015 132.735,217.042 133.335,217.074 132.602 C 217.106 131.869,217.106 130.669,217.074 129.935 C 217.042 129.202,217.015 129.802,217.015 131.269 " stroke="none" fill="#48dce4" fill-rule="evenodd"></path></g></svg>