<?xml version="1.0" standalone="no"?>
<!DOCTYPE svg PUBLIC "-//W3C//DTD SVG 20010904//EN"
 "http://www.w3.org/TR/2001/REC-SVG-20010904/DTD/svg10.dtd">
<svg version="1.0" xmlns="http://www.w3.org/2000/svg"
 width="1200.000000pt" height="1200.000000pt" viewBox="0 0 1200.000000 1200.000000"
 preserveAspectRatio="xMidYMid meet">

<g transform="translate(0.000000,1200.000000) scale(0.100000,-0.100000)"
fill="#000000" stroke="none">
<path d="M5872 11710 c-84 -16 -204 -67 -279 -119 -138 -97 -242 -246 -282
-403 -18 -70 -19 -191 -22 -2808 -4 -3086 -13 -2766 78 -2950 80 -165 235
-296 418 -357 70 -23 96 -27 215 -27 126 0 141 2 223 31 48 17 112 46 143 64
157 95 280 259 323 432 18 68 19 207 22 2802 l4 2730 -23 79 c-38 131 -95 230
-187 321 -139 140 -284 203 -475 210 -58 2 -129 0 -158 -5z"/>
<path d="M3810 10635 c-82 -18 -333 -143 -542 -268 -683 -411 -1276 -977
-1718 -1641 -845 -1269 -1118 -2851 -749 -4346 203 -824 591 -1580 1145 -2230
136 -160 464 -485 619 -614 613 -509 1265 -854 2005 -1060 879 -245 1812 -259
2710 -40 1479 362 2747 1363 3465 2737 325 624 520 1293 597 2052 20 196 17
797 -5 1000 -111 1032 -453 1923 -1045 2725 -296 401 -802 915 -1205 1224
-287 220 -655 427 -819 460 -311 64 -621 -90 -762 -376 -61 -122 -79 -212 -73
-348 9 -190 73 -335 207 -470 65 -64 96 -86 224 -153 370 -196 571 -344 885
-652 260 -255 408 -433 584 -701 365 -554 573 -1149 649 -1854 16 -148 16
-612 0 -760 -76 -705 -284 -1300 -649 -1854 -173 -264 -328 -450 -564 -681
-668 -651 -1509 -1036 -2436 -1115 -180 -16 -663 -7 -820 14 -787 106 -1474
405 -2058 895 -735 618 -1217 1448 -1389 2391 -48 265 -60 414 -60 730 0 316
12 465 60 730 141 772 492 1475 1023 2045 311 334 636 579 1083 819 161 86
256 184 328 339 112 240 86 523 -70 745 -117 167 -277 259 -465 268 -57 2
-114 -2 -155 -11z"/>
</g>
</svg>
