<?xml version="1.0" standalone="no"?>
<!DOCTYPE svg PUBLIC "-//W3C//DTD SVG 20010904//EN"
 "http://www.w3.org/TR/2001/REC-SVG-20010904/DTD/svg10.dtd">
<svg version="1.0" xmlns="http://www.w3.org/2000/svg"
 width="200.000000pt" height="200.000000pt" viewBox="0 0 200.000000 200.000000"
 preserveAspectRatio="xMidYMid meet">

<g transform="translate(0.000000,200.000000) scale(0.100000,-0.100000)"
fill="#000000" stroke="none">
<path d="M816 1474 c-184 -121 -186 -122 -186 -141 0 -34 38 -17 197 85 l170
110 169 -109 c93 -60 176 -108 184 -107 8 2 16 10 18 19 4 19 -343 249 -374
248 -10 0 -91 -48 -178 -105z"/>
<path d="M1650 975 c0 -32 28 -45 46 -21 17 24 7 46 -22 46 -19 0 -24 -5 -24
-25z"/>
<path d="M131 953 c-11 -10 -23 -31 -27 -48 -5 -30 6 -51 82 -155 31 -43 29
-75 -6 -75 -19 0 -26 7 -34 33 -12 43 -40 40 -44 -5 -7 -68 82 -100 133 -48
41 40 29 86 -47 177 -46 54 -49 93 -8 93 21 0 26 -5 28 -32 4 -39 36 -47 45
-12 18 67 -67 117 -122 72z"/>
<path d="M956 954 c-3 -9 -6 -24 -6 -35 0 -10 -7 -19 -15 -19 -8 0 -15 -7 -15
-15 0 -8 5 -15 10 -15 6 0 10 -36 10 -89 0 -129 17 -162 75 -147 31 8 33 34 3
38 -22 3 -23 8 -26 101 l-3 97 26 0 c16 0 25 6 25 15 0 9 -9 15 -25 15 -22 0
-25 4 -25 35 0 37 -22 49 -34 19z"/>
<path d="M300 765 l0 -135 25 0 24 0 3 118 c3 109 4 117 23 117 19 0 20 -8 23
-117 3 -118 3 -118 27 -118 24 0 24 0 27 118 3 109 4 117 23 117 19 0 20 -8
23 -117 l3 -118 24 0 25 0 0 109 c0 137 -8 161 -53 161 -18 0 -38 -5 -44 -11
-8 -8 -13 -8 -17 0 -10 15 -69 14 -84 -1 -9 -9 -12 -9 -12 0 0 7 -9 12 -20 12
-19 0 -20 -7 -20 -135z"/>
<path d="M607 882 c-24 -26 -22 -62 2 -62 12 0 21 9 25 26 10 39 40 28 44 -17
3 -32 0 -38 -27 -48 -47 -20 -63 -44 -59 -91 4 -53 24 -70 68 -53 16 6 30 7
30 2 0 -5 9 -9 20 -9 19 0 20 7 20 119 0 95 -3 123 -16 135 -22 22 -87 21
-107 -2z m73 -168 c0 -41 -2 -45 -22 -42 -29 4 -34 32 -14 63 24 37 36 30 36
-21z"/>
<path d="M780 765 l0 -135 25 0 c24 0 24 0 27 117 2 80 7 118 15 120 7 3 15
-7 19 -21 10 -42 36 -33 32 12 -2 30 -7 38 -26 40 -13 2 -30 -2 -38 -8 -10 -9
-14 -9 -14 -1 0 6 -9 11 -20 11 -19 0 -20 -7 -20 -135z"/>
<path d="M1080 881 c-5 -11 -10 -60 -10 -110 0 -78 3 -94 20 -111 23 -23 33
-24 61 -10 16 9 19 7 19 -14 0 -37 -10 -56 -31 -56 -10 0 -22 7 -27 17 -14 23
-42 10 -35 -17 7 -26 45 -42 79 -34 48 12 54 36 54 201 0 146 -1 153 -20 153
-11 0 -20 -5 -20 -12 0 -9 -3 -9 -12 0 -19 19 -66 15 -78 -7z m78 -23 c19 -19
16 -152 -4 -169 -26 -21 -44 14 -44 84 0 80 19 114 48 85z"/>
<path d="M1284 879 c-16 -18 -19 -36 -19 -114 0 -77 3 -96 19 -114 38 -42 116
-17 116 37 0 15 -6 22 -20 22 -14 0 -20 -7 -20 -21 0 -15 -5 -20 -22 -17 -19
2 -24 10 -26 46 l-3 42 44 0 c43 0 45 1 50 33 2 17 -1 48 -7 67 -10 32 -15 35
-52 38 -31 2 -45 -2 -60 -19z m74 -52 c3 -34 1 -37 -22 -37 -23 0 -26 4 -26
33 0 38 7 49 30 45 9 -2 16 -16 18 -41z"/>
<path d="M1450 765 l0 -135 25 0 24 0 3 118 c3 109 4 117 23 117 19 0 20 -8
23 -117 l3 -118 24 0 25 0 0 109 c0 137 -8 161 -53 161 -18 0 -38 -5 -45 -12
-9 -9 -12 -9 -12 0 0 7 -9 12 -20 12 -19 0 -20 -7 -20 -135z"/>
<path d="M1650 765 l0 -135 25 0 25 0 0 135 0 135 -25 0 -25 0 0 -135z"/>
<path d="M1740 895 c0 -3 11 -33 25 -66 l24 -61 -24 -61 c-30 -73 -30 -77 -6
-77 13 0 24 15 38 47 l19 47 18 -47 c14 -38 22 -47 42 -47 l24 0 -21 51 c-11
29 -24 60 -30 70 -7 14 -3 35 16 80 14 35 25 64 25 66 0 10 -50 1 -50 -9 -1
-7 -7 -26 -14 -43 l-13 -30 -13 43 c-11 34 -18 42 -37 42 -12 0 -23 -2 -23 -5z"/>
</g>
</svg>
